<svg width="24" height="24" fill="none" xmlns="http://www.w3.org/2000/svg"><g clip-path="url(#a)"><path d="M23.5 12c0 6.351-5.149 11.5-11.5 11.5C5.65 23.5.5 18.351.5 12 .5 5.65 5.65.5 12 .5 18.351.5 23.5 5.65 23.5 12Z" stroke="#BB63FF"/><path d="M16.99 19.92C16.96 19.8 16.21 17 12 17c-4.212 0-4.96 2.8-4.99 2.92a.332.332 0 0 0 .158.369c.13.072.292.052.4-.052C7.58 20.226 8.87 19 12 19c3.13 0 4.42 1.225 4.432 1.237a.334.334 0 0 0 .399.054.334.334 0 0 0 .159-.372Zm-6.519-8.391c-2.17-2.17-5.657-2.195-5.805-2.195a.666.666 0 1 0 0 1.333c.02 0 1.283.014 2.655.491-.395.427-.655 1.09-.655 1.842 0 1.29.746 2.334 1.667 2.334C9.253 15.334 10 14.29 10 13c0-.116-.013-.226-.025-.338.009 0 .017.005.025.005a.665.665 0 0 0 .471-1.138Zm8.862-2.195c-.147 0-3.634.025-5.804 2.195a.666.666 0 0 0 .47 1.138c.01 0 .017-.005.025-.005-.01.111-.024.222-.024.338 0 1.29.746 2.334 1.666 2.334.921 0 1.667-1.044 1.667-2.334 0-.752-.26-1.415-.654-1.842a9.285 9.285 0 0 1 2.655-.491.667.667 0 0 0 0-1.333Z" fill="#BB63FF"/></g><defs><clipPath id="a"><path fill="#fff" d="M0 0h24v24H0z"/></clipPath></defs></svg>