<svg width="24" height="24" viewBox="0 0 24 24" fill="none" xmlns="http://www.w3.org/2000/svg">
<g clip-path="url(#clip0_1206_6533)">
<path d="M23.5 12C23.5 18.3512 18.3512 23.5 12 23.5C5.64946 23.5 0.5 18.3512 0.5 12C0.5 5.64948 5.64948 0.5 12 0.5C18.3512 0.5 23.5 5.64946 23.5 12Z" stroke="#CCCCCC"/>
<path d="M16.9903 19.9195C16.9603 19.8002 16.2116 17.0002 12.0003 17.0002C7.78831 17.0002 7.04031 19.8002 7.01031 19.9195C6.97364 20.0642 7.03898 20.2142 7.16831 20.2888C7.29831 20.3615 7.46098 20.3415 7.56831 20.2375C7.58098 20.2248 8.87098 19.0002 12.0003 19.0002C15.1296 19.0002 16.4203 20.2248 16.4323 20.2368C16.4963 20.3002 16.5816 20.3335 16.667 20.3335C16.723 20.3335 16.7796 20.3195 16.831 20.2908C16.9616 20.2162 17.027 20.0648 16.9903 19.9195ZM10.4716 11.5288C8.30164 9.35883 4.81431 9.3335 4.66698 9.3335C4.29898 9.3335 4.00098 9.6315 4.00098 9.99883C4.00031 10.3668 4.29831 10.6655 4.66631 10.6668C4.68564 10.6668 5.94964 10.6815 7.32164 11.1582C6.92631 11.5848 6.66698 12.2475 6.66698 13.0002C6.66698 14.2895 7.41298 15.3335 8.33364 15.3335C9.25431 15.3335 10.0003 14.2895 10.0003 13.0002C10.0003 12.8842 9.98764 12.7735 9.97564 12.6622C9.98431 12.6622 9.99231 12.6668 10.0003 12.6668C10.171 12.6668 10.3416 12.6015 10.4716 12.4715C10.7323 12.2108 10.7323 11.7895 10.4716 11.5288ZM19.3336 9.3335C19.1863 9.3335 15.6996 9.35883 13.529 11.5288C13.2683 11.7895 13.2683 12.2108 13.529 12.4715C13.659 12.6015 13.8296 12.6668 14.0003 12.6668C14.009 12.6668 14.0163 12.6622 14.0243 12.6622C14.0136 12.7735 14.0003 12.8842 14.0003 13.0002C14.0003 14.2895 14.7463 15.3335 15.667 15.3335C16.5876 15.3335 17.3336 14.2895 17.3336 13.0002C17.3336 12.2475 17.0743 11.5848 16.679 11.1582C18.051 10.6815 19.315 10.6668 19.335 10.6668C19.7023 10.6655 20.0003 10.3668 19.9996 9.99883C19.999 9.6315 19.7016 9.3335 19.3336 9.3335Z" fill="#CCCCCC"/>
</g>
<defs>
<clipPath id="clip0_1206_6533">
<rect width="24" height="24" fill="white"/>
</clipPath>
</defs>
</svg>
