<svg width="18" height="18" fill="none" xmlns="http://www.w3.org/2000/svg"><path d="m5.633 14.851-.25.433.25-.433Zm-.515-.057.159.474-.159-.474Zm-1.73.576-.158-.474.159.474Zm-.759-.758.475.158-.475-.158Zm.577-1.73-.474-.158.474.158Zm-.057-.515-.433.25.433-.25Zm.11.319.499.034-.5-.034Zm-.013-.126.482-.133-.482.133Zm-.53 2.95-.167.471.168-.47Zm-.226-.227.47-.168-.47.168Zm2.95-.53.133-.481-.133.482Zm-.126-.012-.034-.499.034.5ZM9 15.25c-1.136 0-2.2-.303-3.118-.832l-.5.866c1.066.615 2.302.966 3.618.966v-1Zm-4.04-.93-1.73.576.317.949 1.73-.577-.317-.948Zm-1.856.45.576-1.73-.948-.316-.577 1.73.949.316Zm.478-2.652A6.22 6.22 0 0 1 2.75 9h-1c0 1.316.351 2.552.966 3.617l.866-.5ZM2.75 9A6.25 6.25 0 0 1 9 2.75v-1A7.25 7.25 0 0 0 1.75 9h1ZM9 2.75A6.25 6.25 0 0 1 15.25 9h1A7.25 7.25 0 0 0 9 1.75v1ZM15.25 9A6.25 6.25 0 0 1 9 15.25v1A7.25 7.25 0 0 0 16.25 9h-1ZM3.68 13.04c.024-.071.069-.193.078-.32l-.998-.068c.002-.024.006-.037.002-.024a1.052 1.052 0 0 1-.01.034l-.02.062.948.316Zm-.964-.423.035.061.02.036c.007.016 0 .005-.007-.02l.964-.267c-.034-.123-.106-.239-.146-.31l-.866.5Zm1.042.103a.857.857 0 0 0-.03-.293l-.964.267a.129.129 0 0 1-.004-.042l.998.068Zm-.528 2.176c-.192.064-.304.101-.383.12-.087.02-.043-.006.038.023l-.336.942c.203.073.4.038.526.008.135-.031.298-.086.472-.144l-.317-.949Zm-1.075-.443c-.058.174-.113.337-.144.472a.921.921 0 0 0 .008.526l.942-.336c.029.082.003.125.023.038.019-.079.055-.19.12-.383l-.949-.316Zm.73.586c.035.013.063.04.076.076l-.942.336a.875.875 0 0 0 .53.53l.336-.942Zm2.997-.62c-.07-.042-.186-.113-.31-.147l-.266.964c-.024-.007-.036-.014-.02-.006a1.095 1.095 0 0 1 .097.054l.5-.866Zm-.605.85a6.98 6.98 0 0 1 .094-.031c.013-.004 0 0-.023.002l-.068-.998c-.127.01-.248.054-.32.078l.317.948Zm.296-.997a.86.86 0 0 0-.293-.03l.068.998a.122.122 0 0 1-.042-.004l.267-.964Z" fill="#fff"/></svg>