<svg width="32" height="32" viewBox="0 0 32 32" fill="none" xmlns="http://www.w3.org/2000/svg">
<rect width="32" height="32" rx="16" fill="#BB63FF"/>
<path fill-rule="evenodd" clip-rule="evenodd" d="M14.1125 8.5529C14.3595 8.67639 14.4596 8.97673 14.3361 9.22372L13.5583 10.7793C13.4348 11.0263 13.1345 11.1264 12.8875 11.0029C12.6405 10.8794 12.5404 10.579 12.6639 10.3321L13.4417 8.7765C13.5652 8.52951 13.8655 8.4294 14.1125 8.5529ZM16.4458 8.5529C16.6928 8.67639 16.7929 8.97673 16.6694 9.22372L15.8917 10.7793C15.7682 11.0263 15.4678 11.1264 15.2208 11.0029C14.9738 10.8794 14.8737 10.579 14.9972 10.3321L15.775 8.7765C15.8985 8.52951 16.1988 8.4294 16.4458 8.5529ZM18.7792 8.5529C19.0262 8.67639 19.1263 8.97673 19.0028 9.22372L18.225 10.7793C18.1015 11.0263 17.8012 11.1264 17.5542 11.0029C17.3072 10.8794 17.2071 10.579 17.3306 10.3321L18.1083 8.7765C18.2318 8.52951 18.5322 8.4294 18.7792 8.5529ZM10.7178 13.389C10.5976 13.389 10.5 13.4864 10.5 13.607V16.7779C10.5 19.5086 12.7137 21.7223 15.4444 21.7223C18.1752 21.7223 20.3889 19.5086 20.3889 16.7779V13.607C20.3889 13.4867 20.2913 13.389 20.1708 13.389H10.7178ZM21.3069 13.1668C21.1304 12.7116 20.6881 12.389 20.1708 12.389H10.7178C10.0449 12.389 9.5 12.9345 9.5 13.607V16.7779C9.5 18.8396 10.5495 20.6561 12.1435 21.7223H10C9.72386 21.7223 9.5 21.9462 9.5 22.2223C9.5 22.4985 9.72386 22.7223 10 22.7223H20.8889C21.165 22.7223 21.3889 22.4985 21.3889 22.2223C21.3889 21.9462 21.165 21.7223 20.8889 21.7223H18.7454C20.0002 20.8829 20.9176 19.5786 21.2512 18.0557H22.0556C23.4056 18.0557 24.5 16.9613 24.5 15.6112C24.5 14.2612 23.4056 13.1668 22.0556 13.1668H21.3069ZM21.3889 14.1668V17.0557H22.0556C22.8533 17.0557 23.5 16.409 23.5 15.6112C23.5 14.8135 22.8533 14.1668 22.0556 14.1668H21.3889Z" fill="white"/>
</svg>
