<svg width="32" height="32" viewBox="0 0 32 32" fill="none" xmlns="http://www.w3.org/2000/svg">
<rect width="32" height="32" rx="16" fill="#BB63FF"/>
<path fill-rule="evenodd" clip-rule="evenodd" d="M16.274 10.5C15.7419 10.5 15.3105 10.9313 15.3105 11.4634C15.3105 11.9955 15.7419 12.4268 16.274 12.4268C16.806 12.4268 17.2374 11.9955 17.2374 11.4634C17.2374 10.9313 16.806 10.5 16.274 10.5ZM14.3105 11.4634C14.3105 10.3791 15.1896 9.5 16.274 9.5C17.3583 9.5 18.2374 10.3791 18.2374 11.4634C18.2374 12.5478 17.3583 13.4268 16.274 13.4268C15.1896 13.4268 14.3105 12.5478 14.3105 11.4634Z" fill="white"/>
<path fill-rule="evenodd" clip-rule="evenodd" d="M14.7725 15.1957C14.8791 15.4504 14.7591 15.7433 14.5044 15.85C13.3262 16.3434 12.5 17.5123 12.5 18.8731C12.5 20.6876 13.9718 22.1594 15.7863 22.1594C17.118 22.1594 18.2666 21.3731 18.78 20.2354C18.8936 19.9837 19.1898 19.8717 19.4415 19.9853C19.6932 20.0989 19.8051 20.3951 19.6915 20.6468C19.0203 22.1339 17.5208 23.1594 15.7863 23.1594C13.4196 23.1594 11.5 21.2399 11.5 18.8731C11.5 17.0981 12.5785 15.5724 14.1181 14.9276C14.3728 14.8209 14.6658 14.9409 14.7725 15.1957Z" fill="white"/>
<path fill-rule="evenodd" clip-rule="evenodd" d="M16.2739 12.4268C16.5501 12.4268 16.7739 12.6506 16.7739 12.9268V16.7705H19.7234C19.9094 16.7705 20.08 16.8737 20.1663 17.0385L22.4427 21.3822C22.5709 21.6268 22.4765 21.929 22.2319 22.0572C21.9873 22.1854 21.6851 22.091 21.557 21.8464L19.4209 17.7705H16.2739C15.9978 17.7705 15.7739 17.5467 15.7739 17.2705V12.9268C15.7739 12.6506 15.9978 12.4268 16.2739 12.4268Z" fill="white"/>
</svg>
