<svg width="34" height="32" fill="none" xmlns="http://www.w3.org/2000/svg"><path d="m24.86 5.02 3.86-3.86 3.88 3.86M32.6 26.7l-3.88 3.88-3.86-3.88" stroke="#fff" stroke-linecap="round" stroke-linejoin="round"/><path d="M28.72 1.16v29.42" stroke="#fff" stroke-linecap="round" stroke-linejoin="round" stroke-dasharray="3 3"/><path d="M17.84 22.14H5.9c-1.66 0-3-1.34-3-3L.9 4c0-1.66 1.34-3 3-3s3 1.34 3 3l2 12.14h8.94c1.66 0 3 1.34 3 3s-1.34 3-3 3Z" stroke="#fff" stroke-miterlimit="10"/><path d="M20.84 30.8v-4.96H2M15.82 22.14v3.7M7.74 22.14v3.7" stroke="#fff" stroke-linecap="round" stroke-linejoin="round"/></svg>