<svg width="48" height="48" xmlns="http://www.w3.org/2000/svg"><path fill-rule="evenodd" clip-rule="evenodd" d="M36.366 11.806a.5.5 0 0 1 .707 0l3.88 3.86a.5.5 0 0 1-.706.708l-3.526-3.508-3.507 3.508a.5.5 0 0 1-.708-.708l3.86-3.86ZM32.507 37.346a.5.5 0 0 1 .708.001l3.506 3.525 3.525-3.526a.5.5 0 1 1 .707.708l-3.88 3.88a.5.5 0 0 1-.708-.001l-3.86-3.88a.5.5 0 0 1 .002-.707Z" fill="current"/><path fill-rule="evenodd" clip-rule="evenodd" d="M36.72 11.66a.5.5 0 0 1 .5.5v1.47a.5.5 0 1 1-1 0v-1.47a.5.5 0 0 1 .5-.5Zm0 4.413a.5.5 0 0 1 .5.5v2.942a.5.5 0 1 1-1 0v-2.942a.5.5 0 0 1 .5-.5Zm0 5.884a.5.5 0 0 1 .5.5v2.942a.5.5 0 1 1-1 0v-2.942a.5.5 0 0 1 .5-.5Zm0 5.884a.5.5 0 0 1 .5.5v2.942a.5.5 0 1 1-1 0V28.34a.5.5 0 0 1 .5-.5Zm0 5.884a.5.5 0 0 1 .5.5v2.942a.5.5 0 1 1-1 0v-2.942a.5.5 0 0 1 .5-.5Zm0 5.884a.5.5 0 0 1 .5.5v1.47a.5.5 0 1 1-1 0v-1.47a.5.5 0 0 1 .5-.5ZM9.4 14.969l2 15.138v.033c0 1.384 1.116 2.5 2.5 2.5h11.94c1.384 0 2.5-1.116 2.5-2.5s-1.116-2.5-2.5-2.5h-9.364L14.4 15.04V15c0-1.384-1.116-2.5-2.5-2.5a2.496 2.496 0 0 0-2.5 2.469ZM8.4 15c0-1.936 1.564-3.5 3.5-3.5a3.496 3.496 0 0 1 3.5 3.458l1.924 11.682h8.516c1.936 0 3.5 1.564 3.5 3.5s-1.564 3.5-3.5 3.5H13.9a3.496 3.496 0 0 1-3.5-3.466l-2-15.141V15ZM9.5 36.84a.5.5 0 0 1 .5-.5h18.84a.5.5 0 0 1 .5.5v4.96a.5.5 0 0 1-1 0v-4.46H10a.5.5 0 0 1-.5-.5Z" fill="current"/><path fill-rule="evenodd" clip-rule="evenodd" d="M23.82 32.64a.5.5 0 0 1 .5.5v3.7a.5.5 0 0 1-1 0v-3.7a.5.5 0 0 1 .5-.5ZM15.74 32.64a.5.5 0 0 1 .5.5v3.7a.5.5 0 0 1-1 0v-3.7a.5.5 0 0 1 .5-.5Z" fill="current"/></svg>