<svg width="14" height="12" viewBox="0 0 14 12" fill="none" xmlns="http://www.w3.org/2000/svg">
<path fill-rule="evenodd" clip-rule="evenodd" d="M13.6667 7.33325C13.6667 9.54239 11.8759 11.3333 9.66675 11.3333L6.33341 11.3333C5.96522 11.3333 5.66675 11.0348 5.66675 10.6666C5.66675 10.2984 5.96522 9.99992 6.33341 9.99992L9.66675 9.99992C11.1395 9.99992 12.3334 8.80601 12.3334 7.33325C12.3334 5.86049 11.1395 4.66659 9.66675 4.66659L2.60956 4.66659L4.13815 6.19518C4.3985 6.45553 4.3985 6.87764 4.13815 7.13799C3.8778 7.39834 3.45569 7.39834 3.19534 7.13799L0.528675 4.47132C0.268326 4.21097 0.268326 3.78886 0.528675 3.52852L3.19534 0.861848C3.45569 0.601498 3.8778 0.601498 4.13815 0.861848C4.3985 1.1222 4.3985 1.54431 4.13815 1.80466L2.60956 3.33325L9.66675 3.33325C11.8759 3.33325 13.6667 5.12411 13.6667 7.33325Z" fill="white"/>
</svg>
