<svg width="36" height="37" fill="none" xmlns="http://www.w3.org/2000/svg"><path d="M36 10.95a7.45 7.45 0 1 0-14.9 0v16.28a7.45 7.45 0 1 0 14.9 0V10.95Z" fill="#fff"/><path d="M21.09 17.53v8.08c0 2.63 2.13 4.76 4.76 4.76h.01c2.63 0 4.76-2.13 4.76-4.76v-8.08h-9.54.01Z" fill="#000"/><path d="M14.91 10.95c0-4.11-3.34-7.45-7.46-7.45A7.45 7.45 0 0 0 0 10.95v16.28a7.45 7.45 0 1 0 14.9 0V10.95h.01Z" fill="#fff"/><path d="M0 17.53v8.08c0 2.63 2.13 4.76 4.76 4.76h.01c2.63 0 4.76-2.13 4.76-4.76v-8.08H0Z" fill="#000"/><path d="M14.91 17.03H0v1h14.91v-1ZM36 17.03H21.09v1H36v-1Z" fill="#000"/></svg>