<svg width="36" height="37" fill="none" xmlns="http://www.w3.org/2000/svg"><path d="M36 10.955a7.455 7.455 0 1 0-14.91 0V27.23a7.455 7.455 0 0 0 14.91 0V10.955Z" fill="#fff"/><path d="M25.866 7.402h-.01a4.764 4.764 0 0 0-4.765 4.764v13.442a4.764 4.764 0 0 0 4.764 4.764h.01a4.764 4.764 0 0 0 4.765-4.764V12.166a4.764 4.764 0 0 0-4.764-4.764Z" fill="#000"/><path d="M14.91 10.955a7.455 7.455 0 1 0-14.91 0V27.23a7.455 7.455 0 1 0 14.91 0V10.955Z" fill="#fff"/><path d="M4.775 7.402h-.01A4.764 4.764 0 0 0 0 12.166v13.442a4.764 4.764 0 0 0 4.764 4.764h.01a4.764 4.764 0 0 0 4.765-4.764V12.166a4.764 4.764 0 0 0-4.764-4.764Z" fill="#000"/><path d="M9.416 17.403c-4.005.349-4.292.637-4.642 4.641-.349-4.005-.636-4.292-4.64-4.641 4.004-.35 4.291-.637 4.64-4.641.35 4.004.637 4.292 4.642 4.64ZM30.496 17.403c-4.004.349-4.292.637-4.64 4.641-.35-4.005-.638-4.292-4.642-4.641 4.004-.35 4.292-.637 4.641-4.641.35 4.004.637 4.292 4.641 4.64Z" fill="#fff"/></svg>