<svg xmlns="http://www.w3.org/2000/svg" viewBox="0 0 24 24" style="enable-background:new 0 0 24 24" xml:space="preserve"><style>.st0{display:none}.st1{display:inline;fill:#fff}</style><path d="M12.5 11c0-.3-.2-.5-.5-.5s-.5.2-.5.5h1zm-1 5c0 .3.2.5.5.5s.5-.2.5-.5h-1zm.5-8h.5c0-.3-.2-.5-.5-.5V8zm0 .1v.5c.1 0 .3-.1.4-.1.1-.1.1-.2.1-.4H12zm0 0h-.5c0 .3.2.5.5.5v-.5zm0-.1v-.5c-.3 0-.5.2-.5.5h.5zm0 12.5c-4.7 0-8.5-3.8-8.5-8.5h-1c0 5.2 4.3 9.5 9.5 9.5v-1zM3.5 12c0-4.7 3.8-8.5 8.5-8.5v-1c-5.2 0-9.5 4.3-9.5 9.5h1zM12 3.5c4.7 0 8.5 3.8 8.5 8.5h1c0-5.2-4.3-9.5-9.5-9.5v1zm8.5 8.5c0 4.7-3.8 8.5-8.5 8.5v1c5.2 0 9.5-4.3 9.5-9.5h-1zm-9-1v5h1v-5h-1zm0-3v.1h1V8h-1zm.5-.4-.1 1h.1v-1zm.5.5-1-.1v.1h1zm-.5.4.1-1H12v1z" style="fill:#fff" id="레이어_16"/></svg>