<svg width="48" height="48" xmlns="http://www.w3.org/2000/svg"><path fill-rule="evenodd" clip-rule="evenodd" d="M23.456 20.357a.5.5 0 0 1 0-.707l7.043-7.043a.5.5 0 0 1 .707 0l5.799 5.798a.5.5 0 0 1 0 .707l-7.043 7.043a.5.5 0 0 1-.707 0l-5.799-5.798Zm1.061-.354 5.091 5.091 6.336-6.335-5.091-5.091-6.336 6.335Z" fill="current"/><path fill-rule="evenodd" clip-rule="evenodd" d="M23.674 19.516a.5.5 0 0 1 .48.13l5.8 5.8a.5.5 0 0 1 .13.48l-1.76 6.76a.5.5 0 0 1-.838.228l-10.8-10.8a.5.5 0 0 1 .228-.838l6.76-1.76Zm-5.663 2.508 9.565 9.565 1.468-5.638-5.395-5.395-5.638 1.468Z" fill="current"/><path fill-rule="evenodd" clip-rule="evenodd" d="M20.434 24.427a.5.5 0 0 1 0 .707 2.844 2.844 0 0 0 0 4.012 2.844 2.844 0 0 0 4.012 0 .5.5 0 0 1 .708.708 3.844 3.844 0 0 1-5.427 0 3.844 3.844 0 0 1 0-5.427.5.5 0 0 1 .707 0ZM27.68 11.5a.5.5 0 0 1 .5.5v8a.5.5 0 1 1-1 0v-8a.5.5 0 0 1 .5-.5ZM9.5 29.66a.5.5 0 0 1 .5-.5h3.06a.5.5 0 0 1 0 1H10a.5.5 0 0 1-.5-.5ZM15.394 34.186a.5.5 0 0 1 0 .707l-2.16 2.16a.5.5 0 1 1-.707-.707l2.16-2.16a.5.5 0 0 1 .707 0ZM19.9 36.08a.5.5 0 0 1 .5.5v3.06a.5.5 0 1 1-1 0v-3.06a.5.5 0 0 1 .5-.5Z" fill="current"/></svg>