<svg width="14" height="13" fill="none" xmlns="http://www.w3.org/2000/svg"><path d="m12.529 5.918.37.337-.37-.337Zm-.101-4.24-.354.354.354-.354Zm-4.573.253-.39-.312.39.312ZM7 3.001l-.39.312a.5.5 0 0 0 .78 0L7 3Zm-.855-1.07-.39.313.39-.313Zm-4.573-.253-.354-.354.354.354Zm-.1 4.24.37-.336-.37.336ZM7 12l-.37.336a.5.5 0 0 0 .74 0L7 12Zm5.899-5.745a3.573 3.573 0 0 0-.117-4.93l-.708.707a2.573 2.573 0 0 1 .085 3.55l.74.673Zm-.117-4.93a3.574 3.574 0 0 0-5.318.294l.781.625a2.574 2.574 0 0 1 3.83-.212l.707-.708Zm-5.318.294L6.61 2.688l.781.624.855-1.068-.78-.625ZM7.39 2.688l-.855-1.07-.78.626.855 1.069.78-.625Zm-.855-1.069a3.573 3.573 0 0 0-5.317-.295l.708.708a2.573 2.573 0 0 1 3.828.212l.781-.625Zm-5.317-.295a3.573 3.573 0 0 0-.117 4.93l.74-.672a2.573 2.573 0 0 1 .085-3.55l-.708-.708Zm-.117 4.93 5.529 6.082.74-.672L1.84 5.582l-.74.673Zm6.269 6.082 5.529-6.081-.74-.673-5.53 6.082.74.672Z" fill="#fff"/></svg>