<svg width="16" height="16" fill="none" xmlns="http://www.w3.org/2000/svg"><path d="M7.646 9.646a.5.5 0 0 0 .708.708l-.708-.708ZM10 8l.354.354a.5.5 0 0 0 0-.708L10 8ZM8.354 5.646a.5.5 0 1 0-.708.708l.708-.708ZM2.667 7.5a.5.5 0 0 0 0 1v-1Zm4.156 5.732-.191.462.19-.462ZM6.5 11.333a.5.5 0 1 0-1 0h1Zm-.399 1.177-.461.192.462-.192Zm7.087.095-.445-.227.445.227Zm-.583.583-.227-.446.227.446Zm0-10.376.227-.445-.227.445Zm.583.583-.445.227.445-.227ZM5.5 4.667a.5.5 0 0 0 1 0h-1Zm2.854 5.687 2-2-.708-.708-2 2 .708.708Zm2-2.708-2-2-.708.708 2 2 .708-.708ZM10 7.5H2.667v1H10v-1ZM8 3.167h3.2v-1H8v1ZM12.833 4.8v6.4h1V4.8h-1ZM11.2 12.833H8v1h3.2v-1Zm-3.2 0c-.317 0-.53 0-.696-.011a.918.918 0 0 1-.29-.052l-.382.924c.193.08.393.111.604.125.207.015.46.014.764.014v-1Zm-2.5-1.5c0 .304 0 .557.014.764.014.211.045.411.126.605l.923-.383a.92.92 0 0 1-.051-.29 11.396 11.396 0 0 1-.012-.696h-1Zm1.514 1.437a.833.833 0 0 1-.45-.451l-.924.383c.186.449.542.806.992.992l.382-.924Zm5.82-1.57c0 .382-.001.638-.017.835-.016.192-.044.283-.074.343l.89.454c.115-.225.16-.462.18-.716.02-.247.02-.55.02-.916h-1ZM11.2 13.833c.365 0 .669 0 .916-.02.254-.02.491-.065.716-.18l-.454-.89c-.06.03-.152.058-.343.074-.197.016-.453.016-.835.016v1Zm1.543-1.455a.834.834 0 0 1-.365.364l.454.891c.345-.175.626-.455.802-.8l-.891-.455ZM11.2 3.167c.382 0 .638 0 .835.016.191.016.283.044.343.075l.454-.891a1.872 1.872 0 0 0-.716-.18c-.247-.02-.55-.02-.916-.02v1ZM13.833 4.8c0-.365 0-.669-.02-.916a1.874 1.874 0 0 0-.18-.716l-.89.454c.03.06.058.151.074.343.016.197.016.453.016.835h1Zm-1.455-1.542c.157.08.285.207.365.364l.89-.454a1.834 1.834 0 0 0-.8-.801l-.455.89ZM6.5 4.667c0-.318 0-.53.012-.696a.92.92 0 0 1 .051-.29l-.923-.383c-.08.194-.112.394-.126.605-.014.207-.014.46-.014.764h1Zm1.5-2.5c-.304 0-.557 0-.764.014a1.882 1.882 0 0 0-.604.125l.382.924a.92.92 0 0 1 .29-.052A11.4 11.4 0 0 1 8 3.167v-1ZM6.563 3.68a.833.833 0 0 1 .451-.45l-.382-.925c-.45.186-.806.543-.992.992l.923.383Z" fill="#fff"/></svg>