<svg width="300" height="42" viewBox="0 0 300 42" fill="none" xmlns="http://www.w3.org/2000/svg">
<g clip-path="url(#clip0_418_7751)">
<path d="M0 0.623047H13.1671C18.4283 0.623047 22.3528 1.24621 25.3958 2.74745C29.6047 4.81521 32.4486 8.49751 32.4486 14.1343C32.4486 18.8363 30.4294 22.4619 26.3911 24.7846C23.2629 26.6258 18.9402 27.5322 13.3946 27.5322H11.5461V41.0434H0V0.623047ZM13.6221 18.808C16.1532 18.808 17.888 18.5814 18.8264 18.0715C20.163 17.3917 20.9025 16.117 20.9025 14.3325C20.9025 12.548 20.1062 11.1601 18.6558 10.4803C17.6036 9.97043 16.1816 9.74383 13.2809 9.74383H11.5461V18.7796H13.6221V18.808Z" fill="#BB63FF"/>
<path d="M68.4519 0C80.6806 0 90.1507 9.14911 90.1507 20.8192C90.1507 32.4892 80.6806 41.6383 68.4519 41.6383C56.2233 41.6383 46.7532 32.4892 46.7532 20.8192C46.7532 9.14911 56.2233 0 68.4519 0ZM68.4519 31.3279C74.1681 31.3279 78.6045 26.6825 78.6045 20.8192C78.6045 14.9558 74.1681 10.3104 68.4519 10.3104C62.7357 10.3104 58.2993 14.9558 58.2993 20.8192C58.2993 26.6825 62.7357 31.3279 68.4519 31.3279Z" fill="#BB63FF"/>
<path d="M106.332 0.623047H117.992C126.41 0.623047 132.723 2.01099 137.046 5.26841C141.539 8.61081 144.014 14.0776 144.014 20.904C144.014 26.9373 142.108 31.9509 138.241 35.4916C134.202 39.1173 127.974 41.0717 118.22 41.0717H106.332V0.623047V0.623047ZM118.333 31.3278C125.671 31.3278 128.657 29.8832 130.391 27.8154C131.899 25.9743 132.467 23.51 132.467 20.8757C132.467 17.0801 131.301 14.3325 128.998 12.6047C126.524 10.7635 122.827 10.3103 118.305 10.3103H117.907V31.2995H118.362L118.333 31.3278Z" fill="#BB63FF"/>
<path d="M180.33 0C192.558 0 202.029 9.14911 202.029 20.8192C202.029 32.4892 192.558 41.6383 180.33 41.6383C168.101 41.6383 158.631 32.4892 158.631 20.8192C158.631 9.14911 168.101 0 180.33 0V0ZM180.33 31.3279C186.046 31.3279 190.482 26.6825 190.482 20.8192C190.482 14.9558 186.046 10.3104 180.33 10.3104C174.614 10.3104 170.177 14.9558 170.177 20.8192C170.177 26.6825 174.614 31.3279 180.33 31.3279V31.3279Z" fill="#BB63FF"/>
<path d="M229.187 0.623047H240.563L257.001 41.0434H244.431L241.587 32.7724H227.68L224.723 41.0434H212.778L229.187 0.623047ZM234.676 12.9163C233.88 15.4939 233.112 17.8166 232.145 20.4508L230.752 24.3031H238.601L237.264 20.4508C236.326 17.7033 235.586 15.4372 234.79 12.9163H234.676Z" fill="#BB63FF"/>
<path d="M271.504 0.623047H283.051V31.3278H299.972V41.0434H271.504V0.623047Z" fill="#BB63FF"/>
</g>
<defs>
<clipPath id="clip0_418_7751">
<rect width="300" height="41.6667" fill="white"/>
</clipPath>
</defs>
</svg>
