<svg width="130" height="18" fill="none" xmlns="http://www.w3.org/2000/svg"><g clip-path="url(#a)" fill="#BB63FF"><path d="M0 .27h5.706c2.28 0 3.98.268 5.299.917 1.824.893 3.056 2.484 3.056 4.919 0 2.031-.875 3.598-2.625 4.601-1.355.795-3.229 1.187-5.632 1.187h-.8v5.837H0V.269Zm5.903 7.855c1.097 0 1.848-.098 2.255-.318.58-.294.9-.844.9-1.615s-.345-1.37-.974-1.665c-.456-.22-1.072-.318-2.329-.318h-.752v3.904h.9v.012ZM29.663 0c5.299 0 9.402 3.952 9.402 8.994 0 5.041-4.103 8.994-9.402 8.994-5.3 0-9.403-3.953-9.403-8.994C20.26 3.952 24.363 0 29.663 0Zm0 13.534c2.477 0 4.399-2.007 4.399-4.54s-1.922-4.54-4.4-4.54c-2.476 0-4.399 2.007-4.399 4.54s1.922 4.54 4.4 4.54ZM46.077.269h5.053c3.648 0 6.383.6 8.257 2.007 1.947 1.444 3.019 3.805 3.019 6.754 0 2.607-.826 4.773-2.502 6.302-1.75 1.566-4.449 2.41-8.676 2.41h-5.15V.27Zm5.2 13.264c3.18 0 4.474-.624 5.226-1.517.653-.795.9-1.86.9-2.998 0-1.64-.506-2.826-1.504-3.573-1.072-.795-2.674-.991-4.633-.991h-.173v9.067h.197l-.012.012ZM78.143 0c5.299 0 9.403 3.952 9.403 8.994 0 5.041-4.104 8.994-9.403 8.994-5.3 0-9.403-3.953-9.403-8.994C68.74 3.952 72.844 0 78.143 0Zm0 13.534c2.477 0 4.4-2.007 4.4-4.54s-1.923-4.54-4.4-4.54c-2.477 0-4.4 2.007-4.4 4.54s1.923 4.54 4.4 4.54ZM99.315.269h4.929l7.123 17.462h-5.447l-1.232-3.573h-6.026L97.38 17.73h-5.176L99.314.269Zm2.378 5.31a63.127 63.127 0 0 1-1.097 3.256l-.604 1.664h3.402l-.58-1.664a143.238 143.238 0 0 1-1.072-3.255h-.049ZM117.652.269h5.003v13.264h7.333v4.198h-12.336V.269Z"/></g><defs><clipPath id="a"><rect width="130" height="18" fill="#fff"/></clipPath></defs></svg>