<svg width="16" height="16" viewBox="0 0 16 16" fill="none" xmlns="http://www.w3.org/2000/svg">
<path d="M6.82292 13.2319L6.63157 13.6939L6.82292 13.2319ZM6.5 11.3334C6.5 11.0573 6.27614 10.8334 6 10.8334C5.72386 10.8334 5.5 11.0573 5.5 11.3334H6.5ZM6.10149 12.5103L5.63955 12.7017L5.63955 12.7017L6.10149 12.5103ZM13.1882 12.6054L12.7426 12.3784L13.1882 12.6054ZM12.6052 13.1881L12.3782 12.7426L12.6052 13.1881ZM12.6052 2.81207L12.8322 2.36657L12.8322 2.36657L12.6052 2.81207ZM13.1882 3.39478L12.7426 3.62177L12.7426 3.62177L13.1882 3.39478ZM5.5 4.66674C5.5 4.94288 5.72386 5.16674 6 5.16674C6.27614 5.16674 6.5 4.94288 6.5 4.66674H5.5ZM8 3.16675H11.2V2.16675H8V3.16675ZM12.8333 4.80005V11.2H13.8333V4.80005H12.8333ZM11.2 12.8334H8V13.8334H11.2V12.8334ZM8 12.8334C7.68253 12.8334 7.46942 12.8331 7.30439 12.8219C7.14384 12.8109 7.06567 12.7913 7.01426 12.77L6.63157 13.6939C6.82519 13.7741 7.02494 13.8052 7.23635 13.8196C7.4433 13.8337 7.69622 13.8334 8 13.8334V12.8334ZM5.5 11.3334C5.5 11.6372 5.49973 11.8901 5.51385 12.097C5.52827 12.3084 5.55937 12.5081 5.63955 12.7017L6.56343 12.319C6.54213 12.2675 6.52248 12.1894 6.51153 12.0289C6.50027 11.8639 6.5 11.6509 6.5 11.3334H5.5ZM7.01426 12.77C6.81019 12.6855 6.64806 12.5233 6.56343 12.319L5.63955 12.7017C5.82557 13.1508 6.18223 13.5077 6.63157 13.6939L7.01426 12.77ZM12.8333 11.2C12.8333 11.5817 12.833 11.8379 12.8169 12.0352C12.8013 12.2266 12.7734 12.3181 12.7426 12.3784L13.6337 12.8324C13.7482 12.6075 13.7929 12.3697 13.8136 12.1164C13.8338 11.869 13.8333 11.5651 13.8333 11.2H12.8333ZM11.2 13.8334C11.5651 13.8334 11.869 13.8338 12.1164 13.8136C12.3696 13.7929 12.6074 13.7481 12.8322 13.6336L12.3782 12.7426C12.3178 12.7733 12.2263 12.8013 12.0349 12.8169C11.8377 12.833 11.5816 12.8334 11.2 12.8334V13.8334ZM12.7426 12.3784C12.6629 12.535 12.5353 12.6625 12.3782 12.7426L12.8322 13.6336C13.1769 13.4579 13.4578 13.1777 13.6337 12.8324L12.7426 12.3784ZM11.2 3.16675C11.5816 3.16675 11.8377 3.16714 12.0349 3.18325C12.2263 3.19889 12.3178 3.22681 12.3782 3.25758L12.8322 2.36657C12.6074 2.25201 12.3696 2.20727 12.1164 2.18657C11.869 2.16636 11.5651 2.16675 11.2 2.16675V3.16675ZM13.8333 4.80005C13.8333 4.43498 13.8338 4.13108 13.8136 3.8837C13.7929 3.63048 13.7482 3.39267 13.6337 3.16778L12.7426 3.62177C12.7734 3.68209 12.8013 3.77356 12.8169 3.96498C12.833 4.16225 12.8333 4.41838 12.8333 4.80005H13.8333ZM12.3782 3.25758C12.5352 3.33757 12.6629 3.46517 12.7426 3.62177L13.6337 3.16778C13.4578 2.82261 13.1769 2.54223 12.8322 2.36657L12.3782 3.25758ZM6.5 4.66674C6.5 4.34927 6.50027 4.13621 6.51153 3.97123C6.52248 3.81075 6.54213 3.7326 6.56343 3.68117L5.63955 3.29849C5.55937 3.49208 5.52827 3.69176 5.51385 3.90316C5.49973 4.11007 5.5 4.36295 5.5 4.66674H6.5ZM8 2.16675C7.69621 2.16675 7.44329 2.16648 7.23635 2.18059C7.02493 2.19502 6.82519 2.22611 6.63157 2.3063L7.01426 3.23018C7.06568 3.20888 7.14385 3.18923 7.3044 3.17828C7.46942 3.16702 7.68253 3.16675 8 3.16675V2.16675ZM6.56343 3.68117C6.64806 3.47687 6.81018 3.31471 7.01426 3.23018L6.63157 2.3063C6.18225 2.49242 5.82558 2.84938 5.63955 3.29849L6.56343 3.68117Z" fill="white"/>
<path d="M5.02022 6.35355C5.21548 6.15829 5.21548 5.84171 5.02022 5.64645C4.82496 5.45118 4.50837 5.45118 4.31311 5.64645L5.02022 6.35355ZM2.66667 8L2.31311 7.64645C2.11785 7.84171 2.11785 8.15829 2.31311 8.35355L2.66667 8ZM4.31311 10.3536C4.50838 10.5488 4.82496 10.5488 5.02022 10.3536C5.21548 10.1583 5.21548 9.84171 5.02022 9.64645L4.31311 10.3536ZM10 8.5C10.2761 8.5 10.5 8.27614 10.5 8C10.5 7.72386 10.2761 7.5 10 7.5L10 8.5ZM4.31311 5.64645L2.31311 7.64645L3.02022 8.35355L5.02022 6.35355L4.31311 5.64645ZM2.31311 8.35355L4.31311 10.3536L5.02022 9.64645L3.02022 7.64645L2.31311 8.35355ZM2.66667 8.5L10 8.5L10 7.5L2.66667 7.5L2.66667 8.5Z" fill="white"/>
</svg>
