<svg width="71" height="70" viewBox="0 0 71 70" fill="none" xmlns="http://www.w3.org/2000/svg">
<path fill-rule="evenodd" clip-rule="evenodd" d="M21.6158 26.1128C21.0707 26.1128 20.623 26.5605 20.623 27.1056V48.8993C20.623 49.4444 21.0707 49.8921 21.6158 49.8921H50.0042C50.5493 49.8921 50.997 49.4444 50.997 48.8993V27.1056C50.997 26.5605 50.5493 26.1128 50.0042 26.1128H46.878V23.9897H50.0042C51.7218 23.9897 53.12 25.388 53.12 27.1056V48.8993C53.12 50.6169 51.7218 52.0151 50.0042 52.0151H21.6158C19.8982 52.0151 18.5 50.6169 18.5 48.8993V27.1056C18.5 25.388 19.8982 23.9897 21.6158 23.9897H24.742V26.1128H21.6158Z" fill="#888888"/>
<path fill-rule="evenodd" clip-rule="evenodd" d="M52.0436 46.0005H19.5615V43.8774H52.0436V46.0005Z" fill="#888888"/>
<path fill-rule="evenodd" clip-rule="evenodd" d="M27.8086 22.123C26.7012 22.123 25.8035 23.0288 25.8035 24.1281V43.8927H45.8166V24.1281C45.8166 23.0207 44.9108 22.123 43.8115 22.123H27.8086ZM27.7938 20C25.514 20.0081 23.6805 21.868 23.6805 24.1281V46.0157H47.9396V24.1281C47.9396 21.8414 46.0766 20 43.8115 20L27.7938 20Z" fill="#888888"/>
<rect x="1" y="0.5" width="69" height="69" rx="34.5" stroke="#888888"/>
</svg>
