<svg width="71" height="70" viewBox="0 0 71 70" fill="none" xmlns="http://www.w3.org/2000/svg">
<path fill-rule="evenodd" clip-rule="evenodd" d="M42.4243 23.2309C42.257 23.1765 42.0766 23.1765 41.9092 23.2309C41.8652 23.2452 41.7837 23.2823 41.6105 23.4293C41.4299 23.5827 41.2101 23.8016 40.8703 24.1413L36.6785 28.3331L42.1667 33.8213L46.3585 29.6294C46.6982 29.2897 46.9172 29.0699 47.0705 28.8893C47.2175 28.7161 47.2547 28.6345 47.2689 28.5905C47.3233 28.4232 47.3233 28.243 47.2689 28.0756C47.2547 28.0317 47.2175 27.9501 47.0705 27.7769C46.9171 27.5963 46.6982 27.3765 46.3585 27.0367L43.463 24.1413C43.1233 23.8015 42.9035 23.5826 42.7229 23.4293C42.5498 23.2823 42.4683 23.2452 42.4243 23.2309ZM42.7607 35.5842L47.5596 30.7854C47.8703 30.4747 48.1383 30.2067 48.3411 29.9679C48.555 29.7159 48.7447 29.4421 48.854 29.1056C49.0172 28.6035 49.0172 28.0627 48.854 27.5606C48.7447 27.224 48.555 26.9503 48.341 26.6983C48.1383 26.4595 47.8703 26.1915 47.5597 25.8809L44.6179 22.9391C44.3077 22.6289 44.0401 22.3613 43.8016 22.1588C43.5497 21.9449 43.276 21.7552 42.9394 21.6458C42.4373 21.4827 41.8963 21.4827 41.3942 21.6458C41.0576 21.7551 40.7839 21.9448 40.5319 22.1587C40.2931 22.3615 40.025 22.6296 39.7143 22.9403L21.5775 41.0772C21.4212 41.2335 21.3334 41.4454 21.3334 41.6665V48.3331C21.3334 48.7934 21.7065 49.1665 22.1667 49.1665H48.8334C49.2936 49.1665 49.6667 48.7934 49.6667 48.3331C49.6667 47.8729 49.2936 47.4998 48.8334 47.4998H30.8452L42.7512 35.5938L42.756 35.589L42.7607 35.5842ZM40.9882 34.9998L35.5 29.5116L23 42.0116V47.4998L28.4882 47.4997L40.9882 34.9998Z" fill="#888888"/>
<rect x="1" y="0.5" width="69" height="69" rx="34.5" stroke="#888888"/>
</svg>
