<svg width="71" height="70" viewBox="0 0 71 70" fill="none" xmlns="http://www.w3.org/2000/svg">
<path fill-rule="evenodd" clip-rule="evenodd" d="M35.5 20.8332C32.2783 20.8332 29.6667 23.4448 29.6667 26.6665C29.6667 29.8882 32.2783 32.4998 35.5 32.4998C38.7217 32.4998 41.3333 29.8882 41.3333 26.6665C41.3333 23.4448 38.7217 20.8332 35.5 20.8332ZM28 26.6665C28 22.5244 31.3579 19.1665 35.5 19.1665C39.6421 19.1665 43 22.5244 43 26.6665C43 30.8086 39.6421 34.1665 35.5 34.1665C31.3579 34.1665 28 30.8086 28 26.6665ZM23 49.9998C23 43.0963 28.5964 37.4998 35.5 37.4998C42.4036 37.4998 48 43.0963 48 49.9998C48 50.4601 47.6269 50.8332 47.1667 50.8332C46.7064 50.8332 46.3333 50.4601 46.3333 49.9998C46.3333 44.0168 41.4831 39.1665 35.5 39.1665C29.5169 39.1665 24.6667 44.0168 24.6667 49.9998C24.6667 50.4601 24.2936 50.8332 23.8333 50.8332C23.3731 50.8332 23 50.4601 23 49.9998Z" fill="#888888"/>
<rect x="1" y="0.5" width="69" height="69" rx="34.5" stroke="#888888"/>
</svg>
