<svg width="70" height="70" viewBox="0 0 70 70" fill="none" xmlns="http://www.w3.org/2000/svg">
<rect width="70" height="70" rx="35" fill="#BB63FF"/>
<path fill-rule="evenodd" clip-rule="evenodd" d="M35 22.625C28.1655 22.625 22.625 28.1655 22.625 35C22.625 41.8345 28.1655 47.375 35 47.375C41.8345 47.375 47.375 41.8345 47.375 35C47.375 28.1655 41.8345 22.625 35 22.625ZM20.375 35C20.375 26.9228 26.9228 20.375 35 20.375C43.0772 20.375 49.625 26.9228 49.625 35C49.625 43.0772 43.0772 49.625 35 49.625C26.9228 49.625 20.375 43.0772 20.375 35ZM33.8003 29C33.8003 28.3787 34.304 27.875 34.9253 27.875H35.0747C35.696 27.875 36.1997 28.3787 36.1997 29V29.15C36.1997 29.4484 36.0811 29.7346 35.8701 29.9456C35.6591 30.1566 35.3728 30.2751 35.0744 30.275L34.925 30.275C34.3038 30.2748 33.8003 29.7712 33.8003 29.15V29ZM35 32.375C35.6213 32.375 36.125 32.8787 36.125 33.5V41C36.125 41.6213 35.6213 42.125 35 42.125C34.3787 42.125 33.875 41.6213 33.875 41V33.5C33.875 32.8787 34.3787 32.375 35 32.375Z" fill="white"/>
</svg>
