<svg width="71" height="70" viewBox="0 0 71 70" fill="none" xmlns="http://www.w3.org/2000/svg">
<rect x="0.5" width="70" height="70" rx="35" fill="#BB63FF"/>
<path fill-rule="evenodd" clip-rule="evenodd" d="M42.4243 23.2309C42.2569 23.1765 42.0765 23.1765 41.9092 23.2309C41.8652 23.2452 41.7836 23.2823 41.6104 23.4293C41.4298 23.5827 41.21 23.8016 40.8703 24.1413L36.6785 28.3331L42.1666 33.8213L46.3584 29.6294C46.6982 29.2897 46.9171 29.0699 47.0704 28.8893C47.2174 28.7161 47.2546 28.6345 47.2689 28.5905C47.3233 28.4232 47.3233 28.243 47.2689 28.0756C47.2546 28.0317 47.2174 27.9501 47.0704 27.7769C46.9171 27.5963 46.6981 27.3765 46.3584 27.0367L43.463 24.1413C43.1232 23.8015 42.9034 23.5826 42.7228 23.4293C42.5497 23.2823 42.4682 23.2452 42.4243 23.2309ZM42.7607 35.5842L47.5595 30.7854C47.8702 30.4747 48.1383 30.2067 48.341 29.9679C48.5549 29.7159 48.7446 29.4421 48.854 29.1056C49.0171 28.6035 49.0171 28.0627 48.854 27.5606C48.7446 27.224 48.5549 26.9503 48.341 26.6983C48.1383 26.4595 47.8703 26.1915 47.5596 25.8809L44.6179 22.9391C44.3077 22.6289 44.04 22.3613 43.8016 22.1588C43.5496 21.9449 43.2759 21.7552 42.9393 21.6458C42.4372 21.4827 41.8963 21.4827 41.3941 21.6458C41.0576 21.7551 40.7839 21.9448 40.5318 22.1587C40.293 22.3615 40.025 22.6296 39.7142 22.9403L21.5774 41.0772C21.4211 41.2335 21.3333 41.4454 21.3333 41.6665V48.3331C21.3333 48.7934 21.7064 49.1665 22.1667 49.1665H48.8333C49.2936 49.1665 49.6666 48.7934 49.6666 48.3331C49.6666 47.8729 49.2936 47.4998 48.8333 47.4998H30.8451L42.7511 35.5938L42.7559 35.589L42.7607 35.5842ZM40.9881 34.9998L35.5 29.5116L23 42.0116V47.4998L28.4881 47.4997L40.9881 34.9998Z" fill="white"/>
</svg>
