<svg width="71" height="70" viewBox="0 0 71 70" fill="none" xmlns="http://www.w3.org/2000/svg">
<rect x="0.5" width="70" height="70" rx="35" fill="#BB63FF"/>
<path d="M42.9643 27.9928C42.5604 27.6161 41.9276 27.6382 41.5509 28.0421C41.1743 28.446 41.1964 29.0788 41.6003 29.4555L42.9643 27.9928ZM44.6259 32.0342L45.5423 31.6338L44.6259 32.0342ZM45.4624 36.0023L46.4624 35.9988L45.4624 36.0023ZM41.6462 42.5768C41.2449 42.9563 41.2273 43.5892 41.6067 43.9905C41.9862 44.3917 42.6191 44.4094 43.0204 44.03L41.6462 42.5768ZM49.0563 23.6051C48.6524 23.2284 48.0196 23.2505 47.6429 23.6544C47.2663 24.0583 47.2884 24.6911 47.6923 25.0678L49.0563 23.6051ZM47.7687 46.9369C47.3674 47.3163 47.3497 47.9492 47.7292 48.3505C48.1087 48.7518 48.7416 48.7695 49.1429 48.39L47.7687 46.9369ZM41.6003 29.4555C42.4995 30.294 43.2174 31.3079 43.7096 32.4345L45.5423 31.6338C44.9407 30.2568 44.0633 29.0176 42.9643 27.9928L41.6003 29.4555ZM43.7096 32.4345C44.2018 33.5613 44.4581 34.7764 44.4624 36.0058L46.4624 35.9988C46.4571 34.496 46.1439 33.0108 45.5423 31.6338L43.7096 32.4345ZM44.4624 36.0058C44.4667 37.2352 44.2189 38.4527 43.7346 39.5828L45.5729 40.3707C46.1648 38.9895 46.4676 37.5015 46.4624 35.9988L44.4624 36.0058ZM43.7346 39.5828C43.2502 40.713 42.5395 41.7321 41.6462 42.5768L43.0204 44.03C44.1123 42.9974 44.9809 41.7518 45.5729 40.3707L43.7346 39.5828ZM47.6923 25.0678C49.1909 26.4653 50.3874 28.1551 51.2077 30.0328L53.0405 29.2322C52.1107 27.104 50.7548 25.1889 49.0563 23.6051L47.6923 25.0678ZM51.2077 30.0328C52.0281 31.9106 52.4551 33.9364 52.4623 35.9855L54.4622 35.9786C54.4541 33.6562 53.9702 31.3603 53.0405 29.2322L51.2077 30.0328ZM52.4623 35.9855C52.4694 38.0347 52.0566 40.0635 51.2494 41.9469L53.0877 42.7348C54.0026 40.6002 54.4703 38.3009 54.4622 35.9786L52.4623 35.9855ZM51.2494 41.9469C50.4421 43.8304 49.2575 45.529 47.7687 46.9369L49.1429 48.39C50.8303 46.7943 52.1728 44.8693 53.0877 42.7348L51.2494 41.9469ZM34.4624 36.0376C34.4624 35.4853 34.9101 35.0376 35.4624 35.0376L35.4624 33.0376C33.8055 33.0376 32.4624 34.3807 32.4624 36.0376L34.4624 36.0376ZM35.4624 37.0376C34.9101 37.0376 34.4624 36.5899 34.4624 36.0376L32.4624 36.0376C32.4624 37.6945 33.8055 39.0376 35.4624 39.0376L35.4624 37.0376ZM36.4624 36.0376C36.4624 36.5899 36.0147 37.0376 35.4624 37.0376L35.4624 39.0376C37.1192 39.0376 38.4624 37.6945 38.4624 36.0376L36.4624 36.0376ZM38.4624 36.0376C38.4624 34.3807 37.1192 33.0376 35.4624 33.0376L35.4624 35.0376C36.0147 35.0376 36.4624 35.4853 36.4624 36.0376L38.4624 36.0376Z" fill="white"/>
<path d="M27.9604 44.0072C28.3643 44.3839 28.9971 44.3618 29.3737 43.9579C29.7504 43.554 29.7283 42.9212 29.3244 42.5445L27.9604 44.0072ZM26.2987 39.9658L25.3824 40.3662L26.2987 39.9658ZM25.4623 35.9977L24.4623 36.0012L25.4623 35.9977ZM29.2785 29.4232C29.6797 29.0437 29.6974 28.4108 29.318 28.0095C28.9385 27.6083 28.3056 27.5906 27.9043 27.97L29.2785 29.4232ZM21.8684 48.3949C22.2723 48.7716 22.9051 48.7495 23.2818 48.3456C23.6584 47.9417 23.6363 47.3089 23.2324 46.9322L21.8684 48.3949ZM23.156 25.0631C23.5573 24.6837 23.5749 24.0508 23.1955 23.6495C22.816 23.2482 22.1831 23.2305 21.7818 23.61L23.156 25.0631ZM29.3244 42.5445C28.4252 41.706 27.7073 40.6921 27.2151 39.5655L25.3824 40.3662C25.984 41.7432 26.8614 42.9824 27.9604 44.0072L29.3244 42.5445ZM27.2151 39.5655C26.7228 38.4387 26.4666 37.2236 26.4623 35.9942L24.4623 36.0012C24.4676 37.504 24.7808 38.9892 25.3824 40.3662L27.2151 39.5655ZM26.4623 35.9942C26.458 34.7648 26.7057 33.5473 27.1901 32.4172L25.3518 31.6293C24.7598 33.0105 24.4571 34.4985 24.4623 36.0012L26.4623 35.9942ZM27.1901 32.4172C27.6745 31.287 28.3852 30.2679 29.2785 29.4232L27.9043 27.97C26.8124 29.0026 25.9438 30.2482 25.3518 31.6293L27.1901 32.4172ZM23.2324 46.9322C21.7337 45.5347 20.5373 43.8449 19.7169 41.9672L17.8842 42.7678C18.814 44.896 20.1699 46.8111 21.8684 48.3949L23.2324 46.9322ZM19.7169 41.9672C18.8965 40.0894 18.4696 38.0636 18.4624 36.0145L16.4624 36.0214C16.4706 38.3438 16.9545 40.6397 17.8842 42.7678L19.7169 41.9672ZM18.4624 36.0145C18.4553 33.9653 18.868 31.9365 19.6753 30.0531L17.837 29.2652C16.9221 31.3998 16.4543 33.6991 16.4624 36.0214L18.4624 36.0145ZM19.6753 30.0531C20.4826 28.1696 21.6672 26.471 23.156 25.0631L21.7818 23.61C20.0944 25.2057 18.7519 27.1307 17.837 29.2652L19.6753 30.0531ZM36.4623 35.9624C36.4623 36.5147 36.0146 36.9624 35.4623 36.9624L35.4623 38.9624C37.1192 38.9624 38.4623 37.6193 38.4623 35.9624L36.4623 35.9624ZM35.4623 34.9624C36.0146 34.9624 36.4623 35.4101 36.4623 35.9624L38.4623 35.9624C38.4623 34.3055 37.1192 32.9624 35.4623 32.9624L35.4623 34.9624ZM34.4623 35.9624C34.4623 35.4101 34.91 34.9624 35.4623 34.9624L35.4623 32.9624C33.8055 32.9624 32.4623 34.3055 32.4623 35.9624L34.4623 35.9624ZM32.4623 35.9624C32.4623 37.6193 33.8055 38.9624 35.4623 38.9624L35.4623 36.9624C34.91 36.9624 34.4623 36.5147 34.4623 35.9624L32.4623 35.9624Z" fill="white"/>
</svg>
