<svg width="32" height="32" viewBox="0 0 32 32" fill="none" xmlns="http://www.w3.org/2000/svg">
<rect width="32" height="32" rx="16" fill="#BB63FF"/>
<path fill-rule="evenodd" clip-rule="evenodd" d="M19.4951 11.5625C19.3414 11.5072 19.1543 11.5001 18.5306 11.5001H13.4692C12.8455 11.5001 12.6587 11.5072 12.505 11.5625C12.3518 11.6177 12.2135 11.7076 12.1007 11.8253C11.9877 11.9433 11.9052 12.1114 11.6519 12.6812L10.5472 15.1667H21.4527L20.348 12.6812C20.0947 12.1112 20.0123 11.9433 19.8993 11.8253C19.7864 11.7076 19.6482 11.6177 19.4951 11.5625ZM22.5462 15.1667C22.5252 15.1176 22.502 15.0655 22.4766 15.0082C22.4726 14.9993 22.4685 14.9902 22.4645 14.981L21.2618 12.2751C21.2506 12.2498 21.2395 12.2249 21.2287 12.2004C21.0236 11.7382 20.8709 11.394 20.6213 11.1335C20.402 10.9046 20.1327 10.7293 19.834 10.6217C19.4946 10.4995 19.1178 10.4997 18.612 10.5C18.5852 10.5001 18.5581 10.5001 18.5306 10.5001H13.4692C13.4417 10.5001 13.4145 10.5001 13.3877 10.5C12.882 10.4997 12.5055 10.4995 12.1661 10.6217C11.8675 10.7293 11.5981 10.9045 11.3787 11.1335C11.1289 11.3942 10.9761 11.7386 10.7709 12.2013C10.7601 12.2256 10.7492 12.2502 10.7381 12.2751L9.53544 14.981C9.53112 14.9908 9.52686 15.0004 9.52265 15.0098C9.49745 15.0664 9.47451 15.118 9.45372 15.1667H9C8.72386 15.1667 8.5 15.3906 8.5 15.6667C8.5 15.9429 8.72386 16.1667 9 16.1667H9.27777C9.27777 16.1673 9.27777 16.1679 9.27777 16.1685C9.27778 16.1772 9.27778 16.186 9.27778 16.1949V21.1112C9.27778 22.2464 10.1981 23.1667 11.3333 23.1667C12.4686 23.1667 13.3889 22.2464 13.3889 21.1112V20.8334L18.6111 20.8334V21.1112C18.6111 22.2464 19.5314 23.1667 20.6667 23.1667C21.8019 23.1667 22.7222 22.2464 22.7222 21.1112V16.1949C22.7222 16.1854 22.7222 16.176 22.7222 16.1667H23C23.2761 16.1667 23.5 15.9429 23.5 15.6667C23.5 15.3906 23.2761 15.1667 23 15.1667H22.5462ZM21.7222 16.1667H10.2778C10.2778 16.1758 10.2778 16.1852 10.2778 16.1949V19.8334L21.7222 19.8334V16.1949C21.7222 16.1852 21.7222 16.1758 21.7222 16.1667ZM21.7222 20.8334L19.6111 20.8334V21.1112C19.6111 21.6941 20.0837 22.1667 20.6667 22.1667C21.2496 22.1667 21.7222 21.6941 21.7222 21.1112V20.8334ZM12.3889 20.8334L10.2778 20.8334V21.1112C10.2778 21.6941 10.7504 22.1667 11.3333 22.1667C11.9163 22.1667 12.3889 21.6941 12.3889 21.1112V20.8334Z" fill="white"/>
</svg>
