<svg xmlns="http://www.w3.org/2000/svg" viewBox="0 0 24 24" style="enable-background:new 0 0 24 24" xml:space="preserve"><style>.st0{display:none}</style><path d="M4 19.8H3c0 .6.4 1 1 1v-1zm16 1c.6 0 1-.4 1-1s-.4-1-1-1v2zm-16-5-.7-.7c-.2.2-.3.4-.3.7h1zM14.9 4.9l-.7-.7.7.7zm2.2 0-.7.7.7-.7zm1.8 1.8.7-.7-.7.7zm0 2.2-.7-.7.7.7zM8 19.8v1c.3 0 .5-.1.7-.3l-.7-.7zM19.5 7.5l1-.3-1 .3zm0 .6-1-.3 1 .3zm-3.8-3.8-.3-1 .3 1zm.6 0 .3-1-.3 1zm-3.6 2.8c-.4-.4-1-.4-1.4 0-.4.4-.4 1 0 1.4l1.4-1.4zm2.6 5.4c.4.4 1 .4 1.4 0 .4-.4.4-1 0-1.4l-1.4 1.4zM4 20.8h16v-2H4v2zm1-1v-4H3v4h2zm-.3-3.3L15.6 5.6l-1.4-1.4L3.3 15.1l1.4 1.4zM16.4 5.6l1.7 1.7L19.6 6l-1.7-1.7-1.5 1.3zm1.8 2.6L7.3 19.1l1.4 1.4L19.6 9.6l-1.4-1.4zM8 18.8H4v2h4v-2zM18.2 7.4l.4.4c.1.1 0 .1 0 0l1.9-.6c-.1-.3-.3-.5-.4-.7-.1-.2-.3-.3-.5-.5l-1.4 1.4zm1.4 2.2.5-.5c.1-.2.3-.4.4-.7l-1.9-.6c0-.1 0-.1 0 0l-.4.4 1.4 1.4zm-1-1.8 1.9.6c.1-.4.1-.8 0-1.2l-1.9.6zm-3-2.2.4-.4c.1-.1.1 0 0 0l-.6-1.9c-.3.1-.5.3-.7.4-.2.1-.3.3-.5.5l1.4 1.4zm2.2-1.4-.5-.5c-.2-.1-.4-.3-.7-.4L16 5.2c-.1 0-.1 0 0 0l.4.4 1.4-1.4zm-1.8 1 .6-1.9c-.4-.1-.8-.1-1.2 0l.6 1.9zm-4.7 3.3 4 4 1.4-1.4-4-4-1.4 1.4z" style="fill:#fff" id="레이어_3"/></svg>