<svg width="30px" height="30px" fill="none" xmlns="http://www.w3.org/2000/svg"><path d="M20.011 17.694a1 1 0 0 0-1.414 1.414l1.414-1.414Zm4.907 7.735a1 1 0 1 0 1.414-1.414l-1.414 1.414ZM13.125 20.25A7.125 7.125 0 0 1 6 13.125H4a9.125 9.125 0 0 0 9.125 9.125v-2ZM6 13.125A7.125 7.125 0 0 1 13.125 6V4A9.125 9.125 0 0 0 4 13.125h2ZM13.125 6a7.125 7.125 0 0 1 7.125 7.125h2A9.125 9.125 0 0 0 13.125 4v2Zm7.125 7.125a7.125 7.125 0 0 1-7.125 7.125v2a9.125 9.125 0 0 0 9.125-9.125h-2Zm-1.653 5.983 6.32 6.321 1.415-1.414-6.32-6.32-1.415 1.413Z" fill="#BB63FF"/></svg>