<svg xmlns="http://www.w3.org/2000/svg" viewBox="0 0 24 24" style="enable-background:new 0 0 24 24" xml:space="preserve"><style>.st0{display:none}.st1{display:inline;fill:#fff}</style><path d="M15.5 14.5c-.2-.2-.5-.2-.7 0-.2.2-.2.5 0 .7l.7-.7zm4.4 5.7c.2.2.5.2.7 0 .2-.2.2-.5 0-.7l-.7.7zm-9.7-3.6c-3.3 0-6-2.7-6-6h-1c0 3.9 3.1 7 7 7v-1zm-6-6c0-3.3 2.7-6 6-6v-1c-3.9 0-7 3.1-7 7h1zm6-6c3.3 0 6 2.7 6 6h1c0-3.9-3.1-7-7-7v1zm6 6c0 3.3-2.7 6-6 6v1c3.9 0 7-3.1 7-7h-1zm-1.4 4.6 5.1 5.1.7-.7-5.1-5.1-.7.7z" style="fill:#fff" id="레이어_6"/></svg>