<svg width="24" height="24" viewBox="0 0 24 24" fill="none" xmlns="http://www.w3.org/2000/svg">
<g clip-path="url(#clip0_1206_6540)">
<path d="M23.5 12C23.5 18.3513 18.3513 23.5 12 23.5C5.64873 23.5 0.5 18.3513 0.5 12C0.5 5.64873 5.64873 0.5 12 0.5C18.3513 0.5 23.5 5.64873 23.5 12Z" stroke="#CCCCCC"/>
<path d="M7.01011 15.7475C7.04011 15.8668 7.78878 18.6668 12.0001 18.6668C16.2121 18.6668 16.9601 15.8668 16.9901 15.7475C17.0268 15.6028 16.9614 15.4528 16.8321 15.3782C16.7021 15.3042 16.5394 15.3262 16.4321 15.4295C16.4194 15.4422 15.1294 16.6668 12.0001 16.6668C8.87078 16.6668 7.58011 15.4422 7.56811 15.4302C7.50411 15.3668 7.41878 15.3335 7.33344 15.3335C7.27744 15.3335 7.22078 15.3475 7.16944 15.3762C7.03878 15.4508 6.97344 15.6022 7.01011 15.7475Z" fill="#CCCCCC"/>
<path d="M7.99967 11.3332C8.92015 11.3332 9.66634 10.2885 9.66634 8.99984C9.66634 7.71117 8.92015 6.6665 7.99967 6.6665C7.0792 6.6665 6.33301 7.71117 6.33301 8.99984C6.33301 10.2885 7.0792 11.3332 7.99967 11.3332Z" fill="#CCCCCC"/>
<path d="M15.9997 11.3332C16.9201 11.3332 17.6663 10.2885 17.6663 8.99984C17.6663 7.71117 16.9201 6.6665 15.9997 6.6665C15.0792 6.6665 14.333 7.71117 14.333 8.99984C14.333 10.2885 15.0792 11.3332 15.9997 11.3332Z" fill="#CCCCCC"/>
</g>
<defs>
<clipPath id="clip0_1206_6540">
<rect width="24" height="24" fill="white"/>
</clipPath>
</defs>
</svg>
