<svg width="24" height="24" fill="none" xmlns="http://www.w3.org/2000/svg"><g clip-path="url(#a)"><path d="M23.5 12c0 6.351-5.149 11.5-11.5 11.5S.5 18.351.5 12 5.649.5 12 .5 23.5 5.649 23.5 12Z" stroke="#BB63FF"/><path d="M7.01 15.748c.03.119.779 2.919 4.99 2.919 4.212 0 4.96-2.8 4.99-2.92a.332.332 0 0 0-.158-.369.337.337 0 0 0-.4.052c-.013.012-1.303 1.237-4.432 1.237-3.13 0-4.42-1.225-4.432-1.237a.334.334 0 0 0-.558.318ZM8 11.333c.92 0 1.666-1.044 1.666-2.333C9.666 7.71 8.92 6.667 8 6.667 7.08 6.667 6.333 7.71 6.333 9c0 1.289.746 2.333 1.667 2.333ZM16 11.333c.92 0 1.666-1.044 1.666-2.333 0-1.289-.746-2.333-1.666-2.333-.92 0-1.667 1.044-1.667 2.333 0 1.289.746 2.333 1.667 2.333Z" fill="#BB63FF"/></g><defs><clipPath id="a"><path fill="#fff" d="M0 0h24v24H0z"/></clipPath></defs></svg>