<svg width="24" height="24" fill="none" xmlns="http://www.w3.org/2000/svg"><g clip-path="url(#a)"><path d="M23.5 12c0 6.351-5.149 11.5-11.5 11.5S.5 18.351.5 12 5.649.5 12 .5 23.5 5.649 23.5 12Z" stroke="#BB63FF"/><path d="M10.667 11.305a.667.667 0 0 1-.633-.456c-.135-.4-.678-1.544-1.367-1.544-.708 0-1.259 1.218-1.367 1.544a.666.666 0 1 1-1.265-.422c.083-.251.87-2.456 2.633-2.456s2.548 2.205 2.632 2.456a.666.666 0 0 1-.633.878Zm6.667 0a.666.666 0 0 1-.632-.456c-.136-.4-.68-1.544-1.368-1.544-.708 0-1.26 1.218-1.368 1.544a.667.667 0 0 1-1.265-.422c.083-.251.87-2.456 2.632-2.456 1.763 0 2.549 2.205 2.632 2.456a.666.666 0 0 1-.631.878Zm.89 2.489a.334.334 0 0 0-.424-.02c-.026.02-2.614 1.934-5.8 1.934-3.177 0-5.774-1.914-5.8-1.934a.333.333 0 0 0-.486.438c.086.144 2.145 3.496 6.286 3.496 4.142 0 6.201-3.352 6.286-3.495a.332.332 0 0 0-.062-.42ZM22.416 2.18a2.042 2.042 0 0 0-3.7-1.188 2.042 2.042 0 0 0-3.647 1.651c.283 1.762 2.242 3.62 3.646 4.132 1.404-.511 3.363-2.37 3.646-4.131.035-.15.055-.305.055-.465ZM8.14 18.937a2.213 2.213 0 0 0-4.011-1.286 2.213 2.213 0 0 0-3.951 1.79c.307 1.908 2.429 3.922 3.95 4.475 1.522-.553 3.644-2.567 3.95-4.475.04-.163.062-.33.062-.503Zm15.826-1.52a1.532 1.532 0 0 0-2.778-.892 1.532 1.532 0 0 0-2.737 1.24c.213 1.322 1.683 2.717 2.737 3.1 1.053-.383 2.524-1.778 2.736-3.1.027-.112.042-.228.042-.348Z" fill="#BB63FF"/></g><defs><clipPath id="a"><path fill="#fff" d="M0 0h24v24H0z"/></clipPath></defs></svg>