<svg width="24" height="24" viewBox="0 0 24 24" fill="none" xmlns="http://www.w3.org/2000/svg">
<g clip-path="url(#clip0_1206_6549)">
<path d="M23.5 12C23.5 18.3513 18.3513 23.5 12 23.5C5.64873 23.5 0.5 18.3513 0.5 12C0.5 5.64873 5.64873 0.5 12 0.5C18.3513 0.5 23.5 5.64873 23.5 12Z" stroke="#CCCCCC"/>
<path d="M10.667 11.3052C10.3877 11.3052 10.1277 11.1285 10.0344 10.8492C9.89904 10.4499 9.35571 9.30519 8.66704 9.30519C7.95904 9.30519 7.40838 10.5232 7.29971 10.8492C7.18304 11.1979 6.80771 11.3879 6.45638 11.2705C6.10704 11.1545 5.91838 10.7765 6.03504 10.4272C6.11838 10.1759 6.90438 7.97119 8.66771 7.97119C10.431 7.97119 11.2164 10.1759 11.3004 10.4272C11.417 10.7765 11.2284 11.1545 10.879 11.2705C10.8084 11.2945 10.737 11.3052 10.667 11.3052ZM17.3337 11.3052C17.0544 11.3052 16.7944 11.1285 16.7017 10.8492C16.5664 10.4499 16.0224 9.30519 15.3337 9.30519C14.6257 9.30519 14.0744 10.5232 13.9657 10.8492C13.849 11.1979 13.475 11.3879 13.1224 11.2705C12.7737 11.1545 12.5844 10.7765 12.701 10.4272C12.7844 10.1759 13.5704 7.97119 15.333 7.97119C17.0957 7.97119 17.8817 10.1759 17.965 10.4272C18.0817 10.7765 17.893 11.1545 17.5437 11.2705C17.4744 11.2945 17.4037 11.3052 17.3337 11.3052ZM18.2237 13.7939C18.105 13.6865 17.9277 13.6799 17.8004 13.7745C17.7744 13.7939 15.1857 15.7079 12.0004 15.7079C8.82304 15.7079 6.22571 13.7939 6.20038 13.7745C6.07304 13.6799 5.89571 13.6879 5.77704 13.7939C5.65904 13.9005 5.63238 14.0765 5.71438 14.2125C5.80038 14.3559 7.85904 17.7079 12.0004 17.7079C16.1417 17.7079 18.201 14.3559 18.2864 14.2125C18.3684 14.0759 18.3424 13.9012 18.2237 13.7939Z" fill="#CCCCCC"/>
<path d="M22.4165 2.17921C22.4165 1.05121 21.5019 0.137207 20.3745 0.137207C19.6899 0.137207 19.0859 0.475207 18.7152 0.991874C18.3445 0.475207 17.7405 0.137207 17.0559 0.137207C15.9279 0.137207 15.0139 1.05121 15.0139 2.17921C15.0139 2.33921 15.0339 2.49387 15.0685 2.64321C15.3525 4.40521 17.3112 6.26387 18.7152 6.77454C20.1192 6.26387 22.0779 4.40521 22.3612 2.64387C22.3965 2.49387 22.4165 2.33921 22.4165 2.17921ZM8.13852 18.9385C8.13852 17.7165 7.14785 16.7259 5.92585 16.7259C5.18385 16.7259 4.52985 17.0919 4.12785 17.6519C3.72652 17.0919 3.07185 16.7259 2.32985 16.7259C1.10785 16.7259 0.117188 17.7165 0.117188 18.9385C0.117188 19.1119 0.139187 19.2792 0.176521 19.4412C0.483854 21.3499 2.60585 23.3639 4.12719 23.9172C5.64852 23.3645 7.77052 21.3505 8.07785 19.4419C8.11652 19.2792 8.13852 19.1112 8.13852 18.9385ZM23.9652 17.4179C23.9652 16.5712 23.2792 15.8852 22.4325 15.8852C21.9185 15.8852 21.4652 16.1385 21.1872 16.5265C20.9092 16.1385 20.4559 15.8852 19.9419 15.8852C19.0952 15.8852 18.4092 16.5712 18.4092 17.4179C18.4092 17.5379 18.4245 17.6539 18.4505 17.7659C18.6632 19.0879 20.1332 20.4832 21.1872 20.8659C22.2405 20.4832 23.7112 19.0879 23.9232 17.7659C23.9499 17.6539 23.9652 17.5379 23.9652 17.4179Z" fill="#CCCCCC"/>
</g>
<defs>
<clipPath id="clip0_1206_6549">
<rect width="24" height="24" fill="white"/>
</clipPath>
</defs>
</svg>
