<svg width="42" height="17" fill="none" xmlns="http://www.w3.org/2000/svg"><path d="M13.696 8.144h-.022a2.238 2.238 0 0 0-2.238 2.238v2.926a2.238 2.238 0 0 0 2.238 2.238h.022a2.238 2.238 0 0 0 2.238-2.238v-2.926a2.238 2.238 0 0 0-2.238-2.238ZM27.984 8.144h-.022a2.238 2.238 0 0 0-2.238 2.238v2.926a2.238 2.238 0 0 0 2.238 2.238h.022a2.238 2.238 0 0 0 2.238-2.238v-2.926a2.238 2.238 0 0 0-2.238-2.238ZM13.674 8.144C13.674 4.206 16.881 1 20.818 1c3.938 0 7.144 3.206 7.144 7.144M35.17 3.852a6.156 6.156 0 0 1 0 8.694M38.022 1c3.97 3.97 3.97 10.428 0 14.421M6.83 3.852a6.156 6.156 0 0 0 0 8.694M3.978 1c-3.97 3.97-3.97 10.428 0 14.421" stroke="#fff" stroke-linecap="round" stroke-linejoin="round"/></svg>