<svg width="48" height="48" fill="none" xmlns="http://www.w3.org/2000/svg"><path fill-rule="evenodd" clip-rule="evenodd" d="M16.674 25.644c-.96 0-1.738.778-1.738 1.738v2.926c0 .96.778 1.738 1.738 1.738h.022c.96 0 1.738-.778 1.738-1.738v-2.926c0-.96-.778-1.738-1.738-1.738h-.022Zm-2.738 1.738a2.738 2.738 0 0 1 2.738-2.738h.022a2.738 2.738 0 0 1 2.738 2.738v2.926a2.738 2.738 0 0 1-2.738 2.738h-.022a2.738 2.738 0 0 1-2.738-2.738v-2.926ZM30.962 25.644c-.96 0-1.738.778-1.738 1.738v2.926c0 .96.779 1.738 1.738 1.738h.022c.96 0 1.738-.778 1.738-1.738v-2.926c0-.96-.778-1.738-1.738-1.738h-.022Zm-2.738 1.738a2.738 2.738 0 0 1 2.738-2.738h.022a2.738 2.738 0 0 1 2.738 2.738v2.926a2.738 2.738 0 0 1-2.738 2.738h-.022a2.738 2.738 0 0 1-2.738-2.738v-2.926Z" fill="#fff"/><path fill-rule="evenodd" clip-rule="evenodd" d="M23.818 18.5c-3.661 0-6.644 2.982-6.644 6.644a.5.5 0 1 1-1 0c0-4.214 3.43-7.644 7.644-7.644s7.644 3.43 7.644 7.644a.5.5 0 1 1-1 0c0-3.662-2.982-6.644-6.644-6.644ZM37.816 20.499a.5.5 0 0 1 .708 0 6.656 6.656 0 0 1 0 9.4.5.5 0 1 1-.708-.707c2.201-2.2 2.201-5.785 0-7.986a.5.5 0 0 1 0-.707Z" fill="#fff"/><path fill-rule="evenodd" clip-rule="evenodd" d="M40.669 17.646a.5.5 0 0 1 .707 0c4.166 4.167 4.165 10.94 0 15.127a.5.5 0 1 1-.708-.705c3.777-3.798 3.775-9.94 0-13.714a.5.5 0 0 1 0-.708ZM10.184 20.499a.5.5 0 0 1 0 .707 5.656 5.656 0 0 0 0 7.986.5.5 0 0 1-.708.707 6.656 6.656 0 0 1 0-9.4.5.5 0 0 1 .708 0Z" fill="#fff"/><path fill-rule="evenodd" clip-rule="evenodd" d="M7.331 17.646a.5.5 0 0 1 0 .708c-3.774 3.774-3.776 9.916.001 13.715a.5.5 0 1 1-.709.704c-4.164-4.187-4.165-10.96.001-15.127a.5.5 0 0 1 .707 0Z" fill="#fff"/></svg>