<svg width="16" height="17" xmlns="http://www.w3.org/2000/svg"><path d="M12.667 12.367h-.5.5Zm0-5.431h.5-.5Zm-.568-1.45-.367.34.367-.34ZM9.967 3.185l-.367.34.367-.34ZM5.467 14.5V14v.5Zm5.066 0v.5-.5Zm-7.054-.728.445-.227-.445.227Zm.582.583.227-.446-.227.446Zm0-11.71.227.446-.227-.446Zm-.582.583-.446-.227.446.227Zm5.999-.512-.273.419.273-.42Zm-.401-.175.122-.485-.122.485Zm3.556 3.785-.487.111.487-.11Zm-.144-.37.433-.249-.433.25Zm.032 7.816.446.227-.446-.227Zm-.583.583.227.445-.227-.445ZM6 11.333a.5.5 0 0 0 0 1v-1Zm4 1a.5.5 0 1 0 0-1v1Zm-4-3a.5.5 0 0 0 0 1v-1Zm4 1a.5.5 0 1 0 0-1v1ZM12.666 7a.5.5 0 1 0 0-1v1Zm-2.933-.5V6v.5Zm-.566-4a.5.5 0 0 0-1 0h1ZM9.03 6.427l.227-.445-.227.445Zm-.292-.291.446-.227-.446.227Zm4.428 6.23v-5.43h-1v5.43h1Zm-.701-7.22-2.132-2.302-.734.68 2.132 2.302.734-.68ZM8.4 2H5.467v1H8.4V2ZM2.833 4.633v7.734h1V4.633h-1ZM5.467 15h5.066v-1H5.467v1Zm-2.634-2.633c0 .365 0 .669.02.916.02.253.066.491.18.716l.891-.454c-.03-.06-.059-.152-.074-.343a11.449 11.449 0 0 1-.017-.835h-1ZM5.467 14c-.382 0-.638 0-.835-.017-.192-.015-.284-.043-.344-.074l-.454.891c.225.115.463.16.716.18.248.02.552.02.917.02v-1Zm-2.434-.001c.176.345.456.625.801.801l.454-.89a.833.833 0 0 1-.364-.365l-.89.454ZM5.467 2c-.365 0-.67 0-.917.02-.253.02-.491.065-.716.18l.454.89c.06-.03.152-.058.344-.073C4.829 3 5.085 3 5.467 3V2ZM3.833 4.633c0-.381 0-.637.017-.835.015-.191.043-.283.074-.343l-.89-.454c-.115.225-.16.463-.18.716-.021.247-.02.551-.02.916h1ZM3.834 2.2a1.833 1.833 0 0 0-.8.801l.89.454a.833.833 0 0 1 .364-.364L3.834 2.2Zm6.5.644c-.217-.233-.38-.415-.584-.548l-.545.839c.075.048.145.118.395.389l.734-.68ZM8.4 3c.369 0 .467.004.553.025l.245-.97C8.964 1.997 8.719 2 8.401 2v1Zm1.35-.704a1.835 1.835 0 0 0-.552-.24l-.245.97c.09.022.175.059.251.109l.545-.839Zm3.416 4.64c0-.286.003-.507-.046-.72l-.975.221c.018.079.02.167.02.499h1Zm-1.435-1.11c.225.244.283.31.324.38l.866-.499c-.11-.19-.262-.35-.456-.56l-.734.68Zm1.389.39a1.835 1.835 0 0 0-.2-.509l-.865.5c.04.071.071.149.09.23l.975-.222Zm-.954 6.15c0 .382 0 .639-.017.836-.016.191-.043.283-.074.343l.89.454a1.87 1.87 0 0 0 .18-.716c.021-.247.02-.551.02-.916h-1ZM10.533 15c.366 0 .67 0 .917-.02.253-.02.49-.065.715-.18l-.454-.89c-.06.03-.151.058-.343.073-.197.017-.453.017-.835.017v1Zm1.543-1.455a.834.834 0 0 1-.365.364l.454.891c.345-.176.626-.456.802-.801l-.891-.454ZM6 12.333h4v-1H6v1Zm0-2h4v-1H6v1ZM12.666 6H9.733v1h2.933V6Zm-3.5-.567V2.5h-1v2.933h1ZM9.734 6c-.195 0-.311 0-.397-.007-.08-.007-.09-.017-.078-.011l-.454.89c.153.079.308.106.45.117.137.011.3.011.479.011V6Zm-1.566-.567c0 .179 0 .343.01.479.012.142.039.297.117.451l.89-.454c.006.011-.003.002-.01-.079a5.555 5.555 0 0 1-.007-.397h-1Zm1.09.549a.166.166 0 0 1-.072-.073l-.891.454c.112.22.29.398.51.51l.454-.891Z" fill="current"/></svg>