<svg width="200" height="41" viewBox="0 0 200 41" fill="none" xmlns="http://www.w3.org/2000/svg">
<rect y="0.666992" width="200" height="40" rx="10" fill="#1DA1F2"/>
<g clip-path="url(#clip0_418_7727)">
<path d="M41.543 15.8205C41.5576 16.0299 41.5576 16.2394 41.5576 16.4507C41.5576 22.8913 36.6045 30.3193 27.5476 30.3193V30.3154C24.8722 30.3193 22.2523 29.5606 20 28.1302C20.389 28.1766 20.78 28.1997 21.172 28.2007C23.3892 28.2026 25.543 27.4662 27.2873 26.1101C25.1803 26.0706 23.3326 24.7107 22.6871 22.7253C23.4252 22.8662 24.1857 22.8373 24.9102 22.6413C22.613 22.1819 20.9604 20.184 20.9604 17.8637V17.802C21.6449 18.1794 22.4112 18.3888 23.1951 18.412C21.0316 16.9806 20.3647 14.1314 21.6712 11.9038C24.1711 14.9489 27.8596 16.8001 31.8191 16.9961C31.4223 15.3031 31.9644 13.5292 33.2436 12.3391C35.2268 10.4937 38.3459 10.5883 40.2101 12.5505C41.3129 12.3353 42.3698 11.9347 43.337 11.3672C42.9694 12.4955 42.2001 13.4539 41.1725 14.0629C42.1484 13.949 43.102 13.6904 44 13.2956C43.3389 14.2762 42.5063 15.1304 41.543 15.8205Z" fill="white"/>
</g>
<path d="M66.5868 15.147V22.315H76.0268V21.499H67.5628V19.067H75.5788V18.251H67.5628V15.947H75.8668V15.147H66.5868ZM64.9068 25.899H77.4988V25.083H64.9068V25.899ZM83.4191 14.587C81.3871 14.587 79.9311 15.707 79.9311 17.387C79.9311 19.067 81.3871 20.203 83.4191 20.203C85.4831 20.203 86.9391 19.067 86.9391 17.387C86.9391 15.707 85.4831 14.587 83.4191 14.587ZM78.8111 21.515L78.9551 22.363C80.1551 22.363 81.5471 22.347 83.0191 22.283V27.355H83.9791V22.235C85.3711 22.139 86.8111 21.995 88.1871 21.755L88.1231 21.003C85.0191 21.483 81.4511 21.515 78.8111 21.515ZM80.8591 17.387C80.8591 16.235 81.9311 15.387 83.4191 15.387C84.9231 15.387 85.9951 16.235 85.9951 17.387C85.9951 18.555 84.9231 19.371 83.4191 19.371C81.9311 19.371 80.8591 18.555 80.8591 17.387ZM89.1951 27.803H90.1551V13.883H89.1951V27.803ZM103.26 13.867V19.275H100.156V20.075H103.26V27.803H104.204V13.867H103.26ZM93.5155 24.379H94.5395C97.3235 24.379 98.9715 24.283 100.972 23.915L100.86 23.099C98.9235 23.483 97.2915 23.547 94.5395 23.547H94.4595V19.915H99.2595V19.115H94.4595V16.011H99.9315V15.211H93.5155V24.379ZM106.86 25.163V25.979H119.452V25.163H113.612V22.347H118.156V21.531H109.436V18.987H117.836V14.955H108.444V15.755H116.876V18.203H108.476V22.347H112.652V25.163H106.86ZM128.276 15.147V17.819C128.276 20.427 126.388 23.083 124.484 24.027L125.092 24.827C126.66 24.011 128.148 22.171 128.788 20.011C129.428 22.059 130.916 23.803 132.452 24.587L133.06 23.819C131.14 22.907 129.236 20.347 129.236 17.819V15.147H128.276ZM134.836 27.803H135.796V13.867H134.836V27.803ZM138.852 14.923V15.739H142.084V16.555C142.084 18.635 140.516 20.411 138.516 21.147L139.044 21.915C140.66 21.291 142.004 20.011 142.58 18.363C143.156 19.867 144.436 21.051 145.988 21.627L146.484 20.843C144.532 20.155 143.044 18.475 143.044 16.539V15.739H146.26V14.923H138.852ZM140.324 23.867H148.26V27.787H149.236V23.051H140.324V23.867ZM148.26 22.235H149.236V18.507H151.38V17.675H149.236V13.883H148.26V22.235ZM162.133 13.883V27.787H163.109V20.539H165.493V19.723H163.109V13.883H162.133ZM152.421 16.987H160.677V16.171H157.093V14.027H156.101V16.171H152.421V16.987ZM153.301 21.435C153.301 23.291 154.693 24.571 156.613 24.571C158.549 24.571 159.941 23.291 159.941 21.435C159.941 19.579 158.549 18.299 156.613 18.299C154.693 18.299 153.301 19.579 153.301 21.435ZM154.229 21.435C154.229 20.107 155.221 19.115 156.613 19.115C158.005 19.115 159.013 20.107 159.013 21.435C159.013 22.763 158.005 23.755 156.613 23.755C155.221 23.755 154.229 22.763 154.229 21.435ZM176.837 13.883V27.787H177.797V13.883H176.837ZM166.693 24.299L167.221 25.083C171.749 22.875 173.717 19.323 173.717 15.403H167.285V16.219H172.741C172.501 19.611 170.485 22.475 166.693 24.299Z" fill="white"/>
<defs>
<clipPath id="clip0_418_7727">
<rect width="24" height="19.3043" fill="white" transform="translate(20 11.0146)"/>
</clipPath>
</defs>
</svg>
