<svg xmlns="http://www.w3.org/2000/svg" viewBox="0 0 24 24" style="enable-background:new 0 0 24 24" xml:space="preserve"><style>.st0{display:none}.st1{display:inline;fill:#fff}</style><path d="M18.5 21c0 .3.2.5.5.5s.5-.2.5-.5h-1zm-14 0c0 .3.2.5.5.5s.5-.2.5-.5h-1zm15 0c0-4.1-3.4-7.5-7.5-7.5v1c3.6 0 6.5 2.9 6.5 6.5h1zM12 13.5c-4.1 0-7.5 3.4-7.5 7.5h1c0-3.6 2.9-6.5 6.5-6.5v-1zm0-3c-1.9 0-3.5-1.6-3.5-3.5h-1c0 2.5 2 4.5 4.5 4.5v-1zM8.5 7c0-1.9 1.6-3.5 3.5-3.5v-1c-2.5 0-4.5 2-4.5 4.5h1zM12 3.5c1.9 0 3.5 1.6 3.5 3.5h1c0-2.5-2-4.5-4.5-4.5v1zM15.5 7c0 1.9-1.6 3.5-3.5 3.5v1c2.5 0 4.5-2 4.5-4.5h-1z" style="fill:#bb63ff" id="레이어_15"/></svg>