<svg xmlns="http://www.w3.org/2000/svg" viewBox="0 0 24 24" style="enable-background:new 0 0 24 24" xml:space="preserve"><style>.st0{display:none}.st1{display:inline;fill:#fff}</style><path d="M17 19.5c0 .6.4 1 1 1s1-.4 1-1h-2zm-12 0c0 .6.4 1 1 1s1-.4 1-1H5zm14 0c0-1.5-.9-2.8-2.2-3.7-1.3-.8-3-1.3-4.8-1.3v2c1.5 0 2.8.4 3.7 1 .9.6 1.3 1.3 1.3 2h2zm-7-5c-1.8 0-3.5.5-4.8 1.3C5.9 16.7 5 18 5 19.5h2c0-.7.4-1.4 1.3-2 .9-.6 2.2-1 3.7-1v-2zm0-3c-1.7 0-3-1.3-3-3H7c0 2.8 2.2 5 5 5v-2zm-3-3c0-1.7 1.3-3 3-3v-2c-2.8 0-5 2.2-5 5h2zm3-3c1.7 0 3 1.3 3 3h2c0-2.8-2.2-5-5-5v2zm3 3c0 1.7-1.3 3-3 3v2c2.8 0 5-2.2 5-5h-2z" style="fill:#fff" id="레이어_12"/></svg>