<svg width="48" height="49" xmlns="http://www.w3.org/2000/svg"><path fill-rule="evenodd" clip-rule="evenodd" d="M23.763 28.418c-.9 0-1.626.726-1.626 1.626 0 .9.726 1.625 1.626 1.625.9 0 1.625-.726 1.625-1.625 0-.9-.726-1.626-1.625-1.626Zm0-1a2.623 2.623 0 0 0-2.626 2.626 2.623 2.623 0 0 0 2.626 2.625 2.623 2.623 0 0 0 2.625-2.625 2.623 2.623 0 0 0-2.625-2.626Zm-5.046 11.129a5.046 5.046 0 0 1 10.091 0 .5.5 0 1 1-1 0 4.046 4.046 0 0 0-8.091 0 .5.5 0 1 1-1 0ZM7.646 15.601a.5.5 0 0 1 .708 0L19.48 26.728a.5.5 0 0 1-.707.707L7.646 16.308a.5.5 0 0 1 0-.707ZM40.354 15.601a.5.5 0 0 1 0 .707l-11.15 11.127a.5.5 0 1 1-.706-.708l11.149-11.126a.5.5 0 0 1 .707 0Z" fill="current"/><path fill-rule="evenodd" clip-rule="evenodd" d="M24.968 12.519a.5.5 0 0 1 .538-.46c1.007.079 2.01.236 2.997.472a.5.5 0 0 1-.232.972 18.438 18.438 0 0 0-2.843-.447.5.5 0 0 1-.46-.537Zm-1.959 0a.5.5 0 0 1-.46.537c-.955.075-1.906.224-2.842.447a.5.5 0 0 1-.232-.972c.987-.236 1.99-.393 2.997-.472a.5.5 0 0 1 .537.46Zm7.728 1.217a.5.5 0 0 1 .653-.271c.928.384 1.833.842 2.704 1.377a.5.5 0 1 1-.523.852 18.185 18.185 0 0 0-2.563-1.305.5.5 0 0 1-.271-.653Zm-13.496 0a.5.5 0 0 1-.272.653c-.88.364-1.737.799-2.563 1.305a.5.5 0 0 1-.523-.852 19.178 19.178 0 0 1 2.705-1.377.5.5 0 0 1 .653.271Zm18.601 2.946a.5.5 0 0 1 .705-.055c.382.327.754.67 1.115 1.032a.5.5 0 0 1-.707.707 18.49 18.49 0 0 0-1.058-.979.5.5 0 0 1-.055-.705Zm-23.707 0a.5.5 0 0 1-.055.705c-.362.31-.715.636-1.058.979a.5.5 0 0 1-.707-.707c.361-.361.733-.705 1.115-1.032a.5.5 0 0 1 .705.055Z" fill="current"/></svg>